<?xml version="1.0" standalone="no"?>
<!DOCTYPE svg PUBLIC "-//W3C//DTD SVG 20010904//EN"
 "http://www.w3.org/TR/2001/REC-SVG-20010904/DTD/svg10.dtd">
<svg version="1.0" xmlns="http://www.w3.org/2000/svg"
 width="1024.000000pt" height="1024.000000pt" viewBox="0 0 1024.000000 1024.000000"
 preserveAspectRatio="xMidYMid meet">
<g transform="translate(0.000000,1024.000000) scale(0.100000,-0.100000)"
fill="#000000" stroke="none">
<path d="M2425 8140 l-120 -5 -73 -190 c-40 -104 -85 -224 -101 -265 -16 -41
-51 -133 -79 -205 -27 -71 -73 -191 -101 -265 -27 -74 -56 -148 -62 -165 -7
-16 -13 -35 -14 -41 -2 -6 -10 -27 -18 -45 -8 -19 -59 -149 -112 -289 -53
-140 -108 -284 -122 -320 -13 -36 -29 -76 -35 -90 -13 -28 -12 -25 -23 -65 -4
-16 -11 -34 -15 -40 -4 -5 -17 -39 -30 -75 -13 -36 -26 -69 -30 -75 -4 -5 -11
-23 -15 -40 -5 -16 -9 -32 -10 -35 -1 -3 -9 -22 -18 -44 -9 -21 -17 -40 -17
-42 0 -1 -5 -15 -12 -31 -6 -15 -12 -30 -13 -33 -1 -5 -56 -151 -70 -185 -5
-11 -9 -22 -10 -25 -1 -3 -5 -14 -10 -25 -4 -11 -22 -58 -40 -105 -17 -47 -36
-94 -40 -105 -4 -11 -9 -24 -11 -30 -1 -5 -16 -46 -34 -90 -17 -44 -33 -84
-34 -90 -1 -5 -8 -21 -13 -35 -22 -50 -55 -139 -54 -145 1 -3 -5 -18 -13 -34
-8 -15 -25 -57 -37 -92 -12 -35 -25 -68 -29 -74 -4 -5 -11 -21 -15 -35 -7 -24
-67 -184 -84 -225 -14 -34 -116 -299 -117 -305 0 -3 -4 -14 -9 -25 -4 -11 -23
-60 -42 -110 -19 -49 -38 -99 -43 -110 -5 -11 -25 -65 -46 -120 -20 -55 -49
-131 -64 -170 -42 -110 -151 -396 -166 -435 -7 -19 -18 -48 -24 -65 -6 -16
-12 -32 -12 -35 0 -3 -5 -14 -11 -25 -13 -23 -12 -20 -22 -62 -4 -18 -11 -33
-16 -33 -5 0 -9 -6 -9 -14 0 -7 -25 -78 -56 -157 -30 -79 -60 -157 -66 -174
-5 -16 -14 -39 -19 -50 -5 -11 -39 -99 -75 -195 -36 -96 -77 -203 -90 -237
l-24 -63 48 0 c346 -3 767 1 772 7 4 5 31 73 59 153 29 80 56 154 61 165 4 11
21 56 36 100 14 44 31 91 37 105 6 14 11 27 11 30 3 11 69 197 81 225 7 17 25
66 40 110 14 44 33 94 40 110 7 17 17 44 21 60 4 17 12 39 17 50 6 11 12 25
13 30 2 8 111 313 145 405 l9 25 1263 1 c869 0 1264 -3 1269 -11 3 -5 34 -86
68 -180 34 -93 65 -179 70 -190 10 -24 39 -103 76 -205 15 -41 33 -91 40 -110
51 -138 76 -206 78 -215 4 -13 16 -45 26 -70 5 -11 19 -49 31 -85 12 -36 26
-69 31 -75 4 -5 8 -19 8 -31 0 -13 4 -25 8 -28 4 -3 14 -28 22 -56 8 -28 18
-53 22 -56 4 -3 8 -12 8 -20 0 -8 7 -31 16 -52 10 -20 18 -44 20 -53 2 -9 13
-37 24 -63 11 -26 20 -54 20 -62 0 -12 35 -14 203 -15 383 0 611 2 615 6 5 5
-9 44 -39 112 -11 24 -19 46 -19 50 0 8 -56 154 -81 210 -11 24 -19 46 -19 50
0 7 -40 114 -70 188 -4 11 -27 70 -50 130 -23 61 -45 119 -50 130 -5 11 -28
72 -51 135 -23 63 -46 119 -51 125 -4 5 -8 16 -8 25 0 9 -8 34 -19 56 -10 21
-26 62 -36 89 -9 28 -22 64 -30 80 -14 33 -50 127 -50 135 -1 3 -6 15 -13 28
-7 12 -10 22 -7 22 3 0 0 12 -9 28 -8 15 -20 43 -26 62 -7 19 -21 54 -31 77
-11 24 -19 46 -19 51 0 4 -15 45 -34 90 -19 45 -31 82 -28 82 3 0 1 5 -6 12
-7 7 -12 17 -12 24 0 6 -7 28 -15 48 -8 20 -14 37 -13 38 1 2 -5 14 -12 28 -8
14 -15 27 -15 30 -2 11 -18 57 -30 85 -7 17 -27 68 -45 115 -17 47 -36 94 -41
105 -4 11 -45 117 -89 235 -45 118 -85 224 -90 235 -4 11 -22 58 -40 105 -18
47 -36 94 -41 105 -4 11 -31 81 -59 155 -28 74 -65 171 -82 215 -16 44 -34 89
-39 100 -4 11 -22 58 -39 105 -17 47 -35 94 -40 105 -5 11 -25 61 -44 110 -18
50 -67 176 -107 280 -40 105 -78 208 -86 230 -7 22 -18 49 -23 60 -9 20 -72
184 -150 390 -22 61 -45 119 -49 130 -23 55 -293 761 -296 775 -1 3 -7 19 -14
35 -22 50 -62 158 -72 193 -8 26 -15 32 -37 32 -15 0 -119 1 -232 3 -113 1
-259 0 -325 -3z m261 -1067 c3 -14 12 -39 20 -54 8 -16 12 -29 8 -29 -4 0 -2
-6 4 -12 5 -7 17 -33 25 -58 14 -42 277 -767 310 -855 8 -22 18 -49 23 -60 4
-11 8 -27 10 -35 2 -8 7 -23 13 -35 6 -11 23 -58 39 -105 17 -47 35 -96 40
-110 14 -32 83 -222 87 -235 1 -5 6 -21 12 -35 5 -14 25 -68 43 -120 18 -52
36 -99 40 -105 3 -5 12 -30 20 -55 7 -25 17 -49 22 -54 4 -6 8 -18 8 -28 0
-10 4 -26 9 -36 11 -20 33 -79 136 -367 41 -113 73 -200 85 -230 21 -51 40
-106 40 -114 0 -6 -423 -9 -1024 -10 l-1024 0 19 57 c10 31 23 66 29 77 5 11
21 56 36 100 14 44 31 88 36 98 5 10 11 26 13 35 4 19 102 291 142 392 14 36
26 72 28 80 2 8 13 40 25 70 12 30 23 62 25 70 2 8 17 51 34 95 16 44 51 139
77 210 25 72 59 164 74 205 16 41 42 116 60 165 17 50 38 104 46 122 8 17 14
34 14 37 0 4 15 48 34 99 19 51 57 157 86 237 28 80 61 167 72 195 11 27 21
54 23 60 1 5 4 17 8 25 12 33 62 175 63 180 0 3 5 16 11 30 5 14 23 60 38 103
28 79 28 79 43 52 7 -15 16 -38 18 -52z"/>
<path d="M6415 8142 l-290 -2 2 -3016 c1 -1659 3 -3018 6 -3020 5 -6 2212 -5
2297 1 141 9 200 16 285 30 17 3 46 7 65 10 19 3 46 7 60 10 14 4 36 8 50 11
14 3 43 10 65 16 22 5 47 12 55 13 78 18 304 106 378 147 90 50 109 62 134 79
14 11 29 19 32 19 6 0 36 23 61 48 8 6 16 12 20 12 14 0 194 174 253 245 44
54 114 159 146 219 14 27 30 54 34 60 11 14 81 195 86 221 2 11 9 32 15 47 12
31 40 165 47 223 3 22 9 67 13 100 9 66 7 425 -3 465 -3 14 -9 45 -12 69 -3
25 -9 52 -14 61 -5 10 -7 20 -5 22 9 9 -72 234 -110 309 -102 200 -271 403
-425 509 -19 13 -37 27 -40 30 -3 3 -14 10 -25 16 -50 27 -70 39 -75 44 -14
16 -193 93 -279 120 l-53 17 92 47 c51 26 111 59 134 74 22 15 46 29 53 32 23
10 173 133 225 184 64 64 94 98 133 151 17 22 33 44 38 50 74 98 164 311 193
458 24 127 25 445 0 572 -2 11 -7 40 -11 65 -9 59 -50 217 -65 255 -34 82 -44
104 -68 155 -15 30 -30 57 -34 58 -4 2 -8 8 -8 14 0 21 -106 162 -179 237
-109 113 -221 196 -360 268 -64 33 -252 112 -282 118 -9 2 -47 12 -85 23 -77
23 -243 57 -319 66 -27 4 -68 9 -90 12 -81 11 -135 14 -380 20 -285 6 -1328
10 -1760 6z m1910 -666 c55 -5 102 -10 105 -11 3 -2 30 -6 60 -10 30 -4 58 -9
62 -11 4 -3 20 -6 35 -8 40 -5 169 -50 239 -82 110 -52 235 -150 284 -224 8
-12 20 -28 25 -34 19 -20 96 -188 101 -221 1 -5 10 -48 20 -95 18 -88 24 -300
11 -394 -10 -76 -29 -160 -39 -171 -4 -5 -8 -15 -8 -22 0 -21 -40 -103 -85
-173 -42 -66 -136 -168 -189 -205 -16 -11 -36 -27 -45 -36 -19 -20 -145 -91
-186 -107 -17 -6 -53 -19 -82 -30 -51 -19 -137 -40 -263 -63 -46 -8 -270 -12
-752 -13 -613 -2 -688 0 -689 14 -3 28 -5 1895 -3 1900 4 8 1289 4 1399 -4z
m139 -2560 c61 -7 151 -22 241 -41 157 -33 364 -144 466 -252 60 -62 129 -158
129 -178 0 -8 4 -15 9 -15 4 0 22 -35 39 -77 34 -87 53 -153 45 -153 -3 0 0
-6 6 -13 6 -8 12 -32 14 -54 2 -22 6 -44 9 -49 2 -5 4 -21 3 -36 0 -16 2 -28
5 -28 8 0 5 -347 -4 -390 -4 -19 -14 -64 -22 -100 -62 -271 -237 -497 -487
-629 -102 -55 -255 -109 -327 -116 -14 -2 -25 -4 -25 -5 0 -3 -39 -9 -100 -16
-86 -10 -1535 -17 -1536 -7 -6 35 -3 2159 2 2163 11 8 1455 4 1533 -4z"/>
</g>
</svg>
