<svg class="logo" width="32" height="19" viewBox="0 0 31.884317 18.810198" xmlns="http://www.w3.org/2000/svg">
  <path d="M 12.208541,13.900943 H 4.327896 L 2.55798,18.810198 H 0 L 7.183015,0 H 9.3534222 L 16.549356,18.810198 H 14.004295 Z M 5.077203,11.859726 h 6.39495 L 8.268218,3.061825 Z" />
  <path d="M 19.081499,18.810198 V 0 h 6.149487 q 3.061825,0 4.599197,1.266071 1.550291,1.266071 1.550291,3.746537 0,1.317747 -0.749308,2.338355 -0.749307,1.0076888 -2.041216,1.5632098 1.524453,0.42633 2.402951,1.6278062 0.891417,1.188556 0.891417,2.8422 0,2.532142 -1.640724,3.97908 -1.640725,1.446939 -4.637954,1.446939 z m 2.480465,-8.797902 V 16.7819 h 4.095352 q 1.731158,0 2.725928,-0.891417 1.00769,-0.904337 1.00769,-2.480466 0,-3.397721 -3.694861,-3.397721 z m 0,-1.9895402 h 3.746537 q 1.627805,0 2.596737,-0.8139028 0.981851,-0.813903 0.981851,-2.209164 0,-1.550291 -0.904336,-2.247922 -0.904337,-0.71055 -2.751767,-0.71055 h -3.669022 z"/>
</svg>
